<mxfile host="app.diagrams.net" modified="2023-04-30T13:02:24.897Z" agent="Mozilla/5.0 (Macintosh; Intel Mac OS X 10_15_7) AppleWebKit/537.36 (KHTML, like Gecko) Chrome/110.0.0.0 Safari/537.36" version="21.2.3" etag="Z8JWbZyJopzL6u6epORG" type="github">
  <diagram name="Page-1" id="j6rEYdvgWybi3Js_ubqx">
    <mxGraphModel>
      <root>
        <mxCell id="0" />
        <mxCell id="1" parent="0" />
      </root>
    </mxGraphModel>
  </diagram>
</mxfile>
